<?xml version="1.0" encoding="UTF-8" standalone="no"?>
<!DOCTYPE svg PUBLIC "-//W3C//DTD SVG 1.1//EN"
 "http://www.w3.org/Graphics/SVG/1.1/DTD/svg11.dtd">
<!-- Generated by graphviz version 15.1.0 (0)
 -->
<!-- Title: fixpoint_ascent Pages: 1 -->
<svg width="527pt" height="75pt"
 viewBox="0.00 0.00 527.00 75.00" xmlns="http://www.w3.org/2000/svg" xmlns:xlink="http://www.w3.org/1999/xlink">
<g id="graph0" class="graph" transform="scale(1 1) rotate(0) translate(4 70.75)">
<title>fixpoint_ascent</title>
<polygon fill="white" stroke="none" points="-4,4 -4,-70.75 523.25,-70.75 523.25,4 -4,4"/>
<!-- bot -->
<g id="node1" class="node">
<title>bot</title>
<path fill="#e5e7eb" stroke="#374151" stroke-width="1.1" d="M42,-36C42,-36 12,-36 12,-36 6,-36 0,-30 0,-24 0,-24 0,-12 0,-12 0,-6 6,0 12,0 12,0 42,0 42,0 48,0 54,-6 54,-12 54,-12 54,-24 54,-24 54,-30 48,-36 42,-36"/>
<text xml:space="preserve" text-anchor="middle" x="27" y="-14.3" font-family="DejaVu Sans" font-size="11.00">⊥</text>
</g>
<!-- f1 -->
<g id="node2" class="node">
<title>f1</title>
<path fill="#dbeafe" stroke="#374151" stroke-width="1.1" d="M140.25,-36C140.25,-36 110.25,-36 110.25,-36 104.25,-36 98.25,-30 98.25,-24 98.25,-24 98.25,-12 98.25,-12 98.25,-6 104.25,0 110.25,0 110.25,0 140.25,0 140.25,0 146.25,0 152.25,-6 152.25,-12 152.25,-12 152.25,-24 152.25,-24 152.25,-30 146.25,-36 140.25,-36"/>
<text xml:space="preserve" text-anchor="middle" x="125.25" y="-14.3" font-family="DejaVu Sans" font-size="11.00">f(⊥)</text>
</g>
<!-- bot&#45;&gt;f1 -->
<g id="edge1" class="edge">
<title>bot&#45;&gt;f1</title>
<path fill="none" stroke="#6b7280" stroke-width="1.2" d="M54.3,-18C64.17,-18 75.59,-18 86.3,-18"/>
<polygon fill="#6b7280" stroke="#6b7280" stroke-width="1.2" points="86.16,-21.5 96.16,-18 86.16,-14.5 86.16,-21.5"/>
<text xml:space="preserve" text-anchor="middle" x="76.12" y="-21.25" font-family="DejaVu Sans" font-size="10.00" fill="#6b7280">⊑</text>
</g>
<!-- f2 -->
<g id="node3" class="node">
<title>f2</title>
<path fill="#bfdbfe" stroke="#374151" stroke-width="1.1" d="M238.5,-36C238.5,-36 208.5,-36 208.5,-36 202.5,-36 196.5,-30 196.5,-24 196.5,-24 196.5,-12 196.5,-12 196.5,-6 202.5,0 208.5,0 208.5,0 238.5,0 238.5,0 244.5,0 250.5,-6 250.5,-12 250.5,-12 250.5,-24 250.5,-24 250.5,-30 244.5,-36 238.5,-36"/>
<text xml:space="preserve" text-anchor="middle" x="223.5" y="-14.3" font-family="DejaVu Sans" font-size="11.00">f²(⊥)</text>
</g>
<!-- f1&#45;&gt;f2 -->
<g id="edge2" class="edge">
<title>f1&#45;&gt;f2</title>
<path fill="none" stroke="#6b7280" stroke-width="1.2" d="M152.55,-18C162.42,-18 173.84,-18 184.55,-18"/>
<polygon fill="#6b7280" stroke="#6b7280" stroke-width="1.2" points="184.41,-21.5 194.41,-18 184.41,-14.5 184.41,-21.5"/>
<text xml:space="preserve" text-anchor="middle" x="174.38" y="-21.25" font-family="DejaVu Sans" font-size="10.00" fill="#6b7280">⊑</text>
</g>
<!-- f3 -->
<g id="node4" class="node">
<title>f3</title>
<path fill="#93c5fd" stroke="#374151" stroke-width="1.1" d="M336.75,-36C336.75,-36 306.75,-36 306.75,-36 300.75,-36 294.75,-30 294.75,-24 294.75,-24 294.75,-12 294.75,-12 294.75,-6 300.75,0 306.75,0 306.75,0 336.75,0 336.75,0 342.75,0 348.75,-6 348.75,-12 348.75,-12 348.75,-24 348.75,-24 348.75,-30 342.75,-36 336.75,-36"/>
<text xml:space="preserve" text-anchor="middle" x="321.75" y="-14.3" font-family="DejaVu Sans" font-size="11.00">f³(⊥)</text>
</g>
<!-- f2&#45;&gt;f3 -->
<g id="edge3" class="edge">
<title>f2&#45;&gt;f3</title>
<path fill="none" stroke="#6b7280" stroke-width="1.2" d="M250.8,-18C260.67,-18 272.09,-18 282.8,-18"/>
<polygon fill="#6b7280" stroke="#6b7280" stroke-width="1.2" points="282.66,-21.5 292.66,-18 282.66,-14.5 282.66,-21.5"/>
<text xml:space="preserve" text-anchor="middle" x="272.62" y="-21.25" font-family="DejaVu Sans" font-size="10.00" fill="#6b7280">⊑</text>
</g>
<!-- lfp -->
<g id="node5" class="node">
<title>lfp</title>
<path fill="#86efac" stroke="#16a34a" stroke-width="1.1" d="M507.25,-36C507.25,-36 417.75,-36 417.75,-36 411.75,-36 405.75,-30 405.75,-24 405.75,-24 405.75,-12 405.75,-12 405.75,-6 411.75,0 417.75,0 417.75,0 507.25,0 507.25,0 513.25,0 519.25,-6 519.25,-12 519.25,-12 519.25,-24 519.25,-24 519.25,-30 513.25,-36 507.25,-36"/>
<text xml:space="preserve" text-anchor="middle" x="462.5" y="-21.05" font-family="DejaVu Sans" font-size="11.00">lfp f</text>
<text xml:space="preserve" text-anchor="middle" x="462.5" y="-7.55" font-family="DejaVu Sans" font-size="11.00">(least fixed point)</text>
</g>
<!-- f3&#45;&gt;lfp -->
<g id="edge4" class="edge">
<title>f3&#45;&gt;lfp</title>
<path fill="none" stroke="#6b7280" stroke-width="1.2" d="M349.17,-18C361.95,-18 377.94,-18 393.81,-18"/>
<polygon fill="#6b7280" stroke="#6b7280" stroke-width="1.2" points="393.48,-21.5 403.48,-18 393.48,-14.5 393.48,-21.5"/>
<text xml:space="preserve" text-anchor="middle" x="377.25" y="-21.25" font-family="DejaVu Sans" font-size="10.00" fill="#6b7280">⊑ …</text>
</g>
<!-- lfp&#45;&gt;lfp -->
<g id="edge5" class="edge">
<title>lfp&#45;&gt;lfp</title>
<path fill="none" stroke="#16a34a" stroke-width="1.2" d="M446.99,-36.52C444.84,-45.76 450.01,-54 462.5,-54 469.13,-54 473.7,-51.67 476.21,-48.11"/>
<polygon fill="#16a34a" stroke="#16a34a" stroke-width="1.2" points="479.65,-48.74 477.73,-38.32 472.74,-47.66 479.65,-48.74"/>
<text xml:space="preserve" text-anchor="middle" x="462.5" y="-57.25" font-family="DejaVu Sans" font-size="10.00" fill="#16a34a">f (stable)</text>
</g>
</g>
</svg>
